<?xml version="1.0" encoding="utf-8"?>
<!-- Generator: Adobe Illustrator 25.2.3, SVG Export Plug-In . SVG Version: 6.00 Build 0)  -->
<svg version="1.1" id="Layer_1" xmlns="http://www.w3.org/2000/svg" xmlns:xlink="http://www.w3.org/1999/xlink" x="0px" y="0px"
	 viewBox="0 0 296 280" style="enable-background:new 0 0 296 280;" xml:space="preserve">
<style type="text/css">
	.st0{fill:#DBD879;}
	.st1{opacity:0.58;}
	.st2{fill:#DDDDA2;}
	.st3{fill:#C8CE7A;}
	.st4{fill:#DDDD73;}
	.st5{fill:#DBD858;}
	.st6{fill:#F4D369;}
	.st7{fill:#BDD376;}
</style>
<g>
	<g>
		<path class="st0" d="M143.8,226.3c-19-14-29.3-39.5-34.1-61.9c-3.3-15.2-4.2-30.8-3.9-46.3c0.3-13.6,0.2-28.6,3.7-41.9
			c1.9-7.1,6.1-13.6,13.7-15.3c8.3-1.8,16.3,2.4,22.2,8c10,9.5,16.6,22.8,21.1,35.7c9,25.8,11.9,54.6,13.9,81.8
			c0.7,9,1,18.1,0.6,27.2c-0.2,4.2-0.2,8.6-1.1,12.7c-1.3,6.1-5.8,8.6-11.6,9.1c-4.9,0.5-10,0.3-14.4-2c-3.7-1.9-6.9-4.4-10.2-6.9
			c-0.6-0.5-1.5,0.4-0.9,0.9c6.1,4.8,11.8,9,19.8,9.4c4.9,0.2,10.9,0.1,14.8-3.4c4.9-4.4,4.3-12.9,4.6-18.8
			c0.8-18.5-1.1-36.9-3.4-55.2c-1.9-15.1-4-30.2-8-44.9c-3.9-14.3-9.8-28.3-19-40.1c-7.4-9.4-19.4-18.7-31.9-13.6
			c-12,4.9-12.9,20.3-13.9,31.4c-1.6,18.5-2.3,37.3-0.2,55.8c1.9,17,6.2,33.7,13.8,49c5.7,11.5,13.2,22.8,23.6,30.5
			C143.8,227.8,144.4,226.8,143.8,226.3z"/>
	</g>
</g>
<g class="st1">
	<g>
		<path class="st0" d="M143.9,226.8c-18.1-14-27.5-39-32-60.7c-3.1-14.8-4-30.1-3.8-45.2c0.2-13.6,0.1-28.7,3.5-42
			c1.6-6.5,5.1-12.9,11.9-14.9c8.2-2.4,16.2,2,21.8,7.6c9.4,9.4,15.5,22.3,19.7,34.8c8.6,25.6,11.2,54,13.2,80.8
			c0.6,8.2,0.9,16.4,0.7,24.6c-0.2,8.4,1,21-9.4,23.4C159.1,237.6,151.5,233.1,143.9,226.8c-0.6-0.5-1.5,0.4-0.9,0.9
			c5.9,4.9,11.3,9,19.3,9.3c4.7,0.1,10.3-0.2,13.8-3.8c4.1-4.2,3.6-12,3.9-17.3c0.9-18.1-0.9-36.2-3.1-54.1
			c-1.8-14.9-3.7-29.9-7.4-44.5c-3.6-14.1-9-27.9-17.6-39.6c-6.7-9.2-17.9-19.2-30.2-14.3c-11.3,4.5-12.4,18.9-13.3,29.3
			c-1.6,17.8-2.3,35.8-0.7,53.6c1.5,16.7,5.2,33.3,12,48.7c5.4,12.1,12.7,24.5,23.3,32.7C143.7,228.2,144.6,227.3,143.9,226.8z"/>
	</g>
</g>
<g>
	<g>
		<path class="st2" d="M117.3,88.9c3.2,0,3.2-5,0-5S114.1,88.9,117.3,88.9L117.3,88.9z"/>
	</g>
</g>
<g>
	<g>
		<path class="st2" d="M115.9,106.9c3.2,0,3.2-5,0-5S112.7,106.9,115.9,106.9L115.9,106.9z"/>
	</g>
</g>
<g>
	<g>
		<path class="st2" d="M133.2,106.9c3.2,0,3.2-5,0-5S130,106.9,133.2,106.9L133.2,106.9z"/>
	</g>
</g>
<g>
	<g>
		<path class="st2" d="M139,127.4c3.2,0,3.2-5,0-5S135.8,127.4,139,127.4L139,127.4z"/>
	</g>
</g>
<g>
	<g>
		<path class="st2" d="M171.9,202.8c3.2,0,3.2-5,0-5C168.7,197.8,168.7,202.8,171.9,202.8L171.9,202.8z"/>
	</g>
</g>
<g>
	<g>
		<path class="st2" d="M127.3,115.2c3.2,0,3.2-5,0-5S124.1,115.2,127.3,115.2L127.3,115.2z"/>
	</g>
</g>
<g>
	<g>
		<path class="st2" d="M119,129.1c3.2,0,3.2-5,0-5S115.8,129.1,119,129.1L119,129.1z"/>
	</g>
</g>
<g>
	<g>
		<path class="st2" d="M137,133.5c3.2,0,3.2-5,0-5S133.8,133.5,137,133.5L137,133.5z"/>
	</g>
</g>
<g>
	<g>
		<path class="st2" d="M151.5,193.4c7.8,0,15.4-6.9,15-15s-6.6-15-15-15c-7.8,0-15.4,6.9-15,15S143.1,193.4,151.5,193.4L151.5,193.4
			z"/>
	</g>
</g>
<g>
	<g>
		<path class="st3" d="M140.9,166.8c-2.4,3.1-4.4,5.7-5.3,9.6c-0.9,3.9-0.9,8.2,0.5,11.9c1.7,4.4,4.3,8.3,8.6,10.7
			c5.8,3.2,13,2.8,18.3-1.3c5.9-4.5,7.6-11.5,7.4-18.7c-0.1-5.8-3.3-11.4-8.4-14.4c-2.5-1.5-5.7-2.4-8.6-3c-5.9-1.3-12-0.7-16.6,3.8
			c-2.8,2.8-4.2,6.5-4.9,10.3c-1.5,8-0.1,15.5,5.7,21.5c6.1,6.3,16.7,7.1,23.8,2.3c6.8-4.5,11.2-12.5,10.1-20.7
			c-1.4-10.3-11.1-16.1-20.9-16.5c-10.6-0.5-19.6,8-19.8,18.5c-0.2,7.8,7,15.4,15,15c8.3-0.4,14.8-6.6,15-15c0-0.2,0-0.4,0-0.6
			c-0.2,1.3-0.4,2.7-0.5,4c0-0.2,0.1-0.4,0.1-0.6c-0.5,1.2-1,2.4-1.5,3.6c0.1-0.4,0.3-0.7,0.6-1c-0.8,1-1.6,2-2.3,3
			c0.1-0.1,0.3-0.3,0.4-0.4c-1,0.8-2,1.6-3,2.3c0.3-0.3,0.6-0.5,1-0.6c-1.2,0.5-2.4,1-3.6,1.5c0.4-0.2,0.8-0.3,1.2-0.3
			c-1.3,0.2-2.7,0.4-4,0.5c0.5-0.1,1-0.1,1.5,0c-1.3-0.2-2.7-0.4-4-0.5c1.5,0.2,2.8,0.7,4.2,1.3c-1.2-0.5-2.4-1-3.6-1.5
			c0.4,0.1,0.7,0.3,1,0.6c-1-0.8-2-1.6-3-2.3c0.1,0.1,0.3,0.3,0.4,0.4c-0.8-1-1.6-2-2.3-3c0.1,0.2,0.2,0.4,0.3,0.6
			c-0.5-1.2-1-2.4-1.5-3.6c0,0.2,0.1,0.4,0.1,0.7c-0.2-1.3-0.4-2.7-0.5-4c0,0.2,0,0.5,0,0.7c0.2-1.3,0.4-2.7,0.5-4
			c-0.1,0.7-0.3,1.3-0.6,2c0.5-1.2,1-2.4,1.5-3.6c-0.3,0.6-0.6,1.1-1,1.7c0.8-1,1.6-2,2.3-3c-0.4,0.5-0.9,1-1.4,1.4
			c1-0.8,2-1.6,3-2.3c-0.3,0.3-0.7,0.5-1.1,0.7c1.2-0.5,2.4-1,3.6-1.5c-0.4,0.2-0.8,0.3-1.2,0.4c1.3-0.2,2.7-0.4,4-0.5
			c-0.4,0.1-0.8,0.1-1.2,0c1.3,0.2,2.7,0.4,4,0.5c-0.4-0.1-0.8-0.2-1.2-0.3c1.2,0.5,2.4,1,3.6,1.5c-0.4-0.2-0.7-0.4-1-0.7
			c1,0.8,2,1.6,3,2.3c-0.3-0.3-0.6-0.6-0.8-0.9c0.8,1,1.6,2,2.3,3c-0.2-0.3-0.4-0.7-0.6-1.1c0.5,1.2,1,2.4,1.5,3.6
			c-0.2-0.6-0.4-1.2-0.5-1.8c0.2,1.3,0.4,2.7,0.5,4c-0.1-0.9,0-1.7,0-2.6c-0.2,1.3-0.4,2.7-0.5,4c0.2-1.3,0.5-2.6,0.9-3.8
			c-0.5,1.2-1,2.4-1.5,3.6c0.1-0.1,0.1-0.2,0.2-0.3c-3,2.3-6,4.6-9,6.9c0.2-0.1,0.4-0.1,0.5-0.2c-1.3,0.2-2.7,0.4-4,0.5
			c0.2,0,0.4,0,0.6,0.1c-1.3-0.2-2.7-0.4-4-0.5c1.8,0.4,3.6,0.9,5.3,1.5c-1.2-0.5-2.4-1-3.6-1.5c0.3,0.1,0.6,0.3,0.9,0.5
			c-1-0.8-2-1.6-3-2.3c0.1,0.1,0.2,0.3,0.3,0.4c-1.3-2.2-2.6-4.4-3.9-6.6c0.1,0.2,0.1,0.5,0.2,0.7c-0.2-1.3-0.4-2.7-0.5-4
			c0,1.5-0.1,2.9-0.3,4.4c0.2-1.3,0.4-2.7,0.5-4c-0.1,0.4-0.2,0.8-0.3,1.2c0.5-1.2,1-2.4,1.5-3.6c-0.1,0.4-0.3,0.7-0.6,1
			c0.8-1,1.6-2,2.3-3c-0.1,0.1-0.3,0.2-0.4,0.3c1-0.8,2-1.6,3-2.3c-0.2,0.1-0.3,0.1-0.5,0.2c2.5-0.7,5-1.4,7.6-2c-0.2,0-0.4,0-0.6,0
			c1.3,0.2,2.7,0.4,4,0.5c-0.2,0-0.4-0.1-0.5-0.1c1.2,0.5,2.4,1,3.6,1.5c-0.2-0.1-0.3-0.2-0.5-0.3c1,0.8,2,1.6,3,2.3
			c-0.3-0.2-0.6-0.5-0.8-0.9c0.8,1,1.6,2,2.3,3c-0.1-0.2-0.2-0.4-0.3-0.5c0.5,1.2,1,2.4,1.5,3.6c-0.3-0.7-0.4-1.2-0.6-1.9
			c0.2,1.3,0.4,2.7,0.5,4c-0.1-0.4-0.1-0.9,0-1.3c-0.2,1.3-0.4,2.7-0.5,4c0.1-0.7,0.2-1.3,0.5-2c-0.5,1.2-1,2.4-1.5,3.6
			c0.2-0.4,0.4-0.8,0.6-1.2c-0.8,1-1.6,2-2.3,3c0.1-0.2,0.3-0.4,0.4-0.5c2.6-3.2,4.4-6.3,4.4-10.6c0-3.7-1.6-8.1-4.4-10.6
			c-2.9-2.6-6.6-4.6-10.6-4.4C147.8,162.6,143.3,163.8,140.9,166.8L140.9,166.8z"/>
	</g>
</g>
<g>
	<path class="st4" d="M148,179c0.4,2.1,1.3,4.5,3.3,4.9c1.4,0.3,3-0.7,3.1-2.1c0.1-1.4-1.5-2.7-2.8-2.2c-1.1,0.4-1.5,1.8-1.2,3
		c0.3,1.1,1.3,1.9,2.3,2.5c0.5,0.3,1.1,0.5,1.7,0.3c0.4-0.2,0.7-0.6,1-1c0.8-1.2,1.5-2.7,1-4c-0.8-2-3.9-2.1-5.5-0.6
		c-1.5,1.4-1.8,4.2-0.1,5.4c1,0.8,2.5,0.7,3.6,0.1c1.1-0.6,1.9-1.7,2.4-2.9c0.7-1.6,0.5-4-1.2-4.4"/>
	<g>
		<path class="st5" d="M138.3,181.7c1.2,5.4,4.7,10.6,10.3,11.9c8.4,2,16.7-4.9,15.6-13.6c-0.5-3.8-2.8-7.1-6.2-9
			c-4.6-2.5-10-1.6-13.8,1.7c-5.6,4.9-4.7,14.2,0.7,18.8c3.3,2.8,7.6,4.6,12,3.4c3.6-0.9,6.5-3.7,8-7.1c1.5-3.3,2.3-6.7,1.2-10.3
			c-1.2-4-4.4-7.3-8.5-8.4c-5.9-1.6-12.7,0.6-15.8,6.1c-3.5,6.2-2.3,14.5,4,18.4c7,4.3,16.3,0.8,19.7-6.4c3.5-7.5,1.2-16.2-7.2-19
			c-5-1.7-11.1,1.9-12.3,7c-1.3,5.5,1.7,10.5,7,12.3c-2.7-0.8-4.4-2.3-5.2-4.6c-0.4-1-0.4-1.1-0.3-0.5c-0.1-0.9-0.2-1.8-0.4-2.7
			c0,0.4,0,0.8,0,1.2c0.1-0.9,0.2-1.8,0.4-2.7c0,0.1-0.2,0.8-0.2,0.8c0.2-0.5,0.4-1,0.6-1.5c-0.4,0.7-0.3,0.6,0.2-0.1
			c1.3-1.7-1,0.7,0.7-0.6c0.4-0.4,0.8-0.6,1.3-0.8c0.9-0.3,0.9-0.4,0.1-0.2c0.9-0.1,1.8-0.2,2.7-0.4c-0.2,0-0.4,0-0.5,0
			c0.9,0.1,1.8,0.2,2.7,0.4c-1.7-0.3-0.8,0.2,2.6,1.7c1.7,3.6,2.3,4.6,1.8,2.9c0.1,0.9,0.2,1.8,0.4,2.7c-0.1-0.5-0.1-0.8,0-1.3
			c-0.1,0.9-0.2,1.8-0.4,2.7c0.2-1,0-0.6-0.6,1.1c0.5-0.9,0.2-0.5-0.8,1c-0.8,0.9-1.8,1.4-3,1.7c0.3-0.1,0.5-0.1,0.8-0.2
			c-0.9,0.1-1.8,0.2-2.7,0.4c0.4,0,0.8,0,1.2,0c-0.9-0.1-1.8-0.2-2.7-0.4c1,0.3,0.5,0.1-1.3-0.6c-1.7-1.1-2.9-2.5-3.5-4.3
			c-0.1-0.9-0.2-1.8-0.4-2.7c0,0.3,0,0.7,0,1c0.1-0.9,0.2-1.8,0.4-2.7c-0.4,1.6,1-1.6,0.3-0.6c-1.9,2.6,3.1-2.7,4-2.8
			c1.8,0,3.5,0,5.3,0c1.4,0.7,1.7,0.9,1.1,0.5c-0.7-0.4-0.3-0.1,1,0.8c-1.7-1.6,1.9,4.6,1.4,2.4c0.1,0.9,0.2,1.8,0.4,2.7
			c0-0.3,0-0.6,0-0.9c-0.1,0.9-0.2,1.8-0.4,2.7c-0.8,2.5-2.6,4.2-5.3,5.2c-0.9,0.1-1.8,0.2-2.7,0.4c0.2,0,0.3,0,0.5,0
			c-0.9-0.1-1.8-0.2-2.7-0.4c-2.6-0.9-4.3-2.6-5.1-5.1c-0.1-0.9-0.2-1.8-0.4-2.7c0,0.2,0,0.3,0,0.5c0.1-0.9,0.2-1.8,0.4-2.7
			c0.4-1.2,1-2.1,2-2.8c0.7-1,1.6-1.7,2.8-2c0.9-0.1,1.8-0.2,2.7-0.4c-0.3,0.1-0.6,0-0.9,0c0.9,0.1,1.8,0.2,2.7,0.4
			c1.4,0.4,2.6,1.3,3.4,2.4c1.4,1.8,0,0,0.1-0.1s0.8,2.5,0.5,1.1c-0.1-0.5-0.2-0.9-0.3-1.4c-1.1-5.1-7.3-8.6-12.3-7
			C139.9,171.1,137.1,176.2,138.3,181.7L138.3,181.7z"/>
	</g>
</g>
<g>
	<g>
		<path class="st2" d="M145.8,115.7c3.2,0,3.2-5,0-5S142.6,115.7,145.8,115.7L145.8,115.7z"/>
	</g>
</g>
<g>
	<g>
		<path class="st2" d="M155.9,118c3.2,0,3.2-5,0-5C152.7,113,152.7,118,155.9,118L155.9,118z"/>
	</g>
</g>
<g>
	<g>
		<path class="st2" d="M139.6,142.7c3.2,0,3.2-5,0-5C136.4,137.7,136.4,142.7,139.6,142.7L139.6,142.7z"/>
	</g>
</g>
<g>
	<g>
		<path class="st2" d="M126.6,135.9c3.2,0,3.2-5,0-5C123.4,130.9,123.4,135.9,126.6,135.9L126.6,135.9z"/>
	</g>
</g>
<g>
	<g>
		<path class="st2" d="M122.4,180.9c3.2,0,3.2-5,0-5S119.2,180.9,122.4,180.9L122.4,180.9z"/>
	</g>
</g>
<g>
	<g>
		<path class="st2" d="M124.6,94.9c3.2,0,3.2-5,0-5C121.4,89.9,121.4,94.9,124.6,94.9L124.6,94.9z"/>
	</g>
</g>
<g>
	<g>
		<path class="st2" d="M115.9,142.7c3.2,0,3.2-5,0-5S112.7,142.7,115.9,142.7L115.9,142.7z"/>
	</g>
</g>
<g>
	<g>
		<path class="st2" d="M120.4,73.8c3.2,0,3.2-5,0-5S117.2,73.8,120.4,73.8L120.4,73.8z"/>
	</g>
</g>
<g>
	<g>
		<path class="st2" d="M141.6,96.9c3.2,0,3.2-5,0-5C138.4,91.9,138.4,96.9,141.6,96.9L141.6,96.9z"/>
	</g>
</g>
<g>
	<g>
		<path class="st2" d="M144.5,107.9c3.2,0,3.2-5,0-5S141.3,107.9,144.5,107.9L144.5,107.9z"/>
	</g>
</g>
<g>
	<g>
		<path class="st2" d="M165.6,121.9c3.2,0,3.2-5,0-5S162.4,121.9,165.6,121.9L165.6,121.9z"/>
	</g>
</g>
<g>
	<g>
		<path class="st2" d="M129.4,202.8c3.2,0,3.2-5,0-5S126.2,202.8,129.4,202.8L129.4,202.8z"/>
	</g>
</g>
<g>
	<g>
		<path class="st2" d="M143.2,152.8c3.2,0,3.2-5,0-5S140,152.8,143.2,152.8L143.2,152.8z"/>
	</g>
</g>
<g>
	<g>
		<path class="st2" d="M153,158.9c3.2,0,3.2-5,0-5C149.7,153.9,149.7,158.9,153,158.9L153,158.9z"/>
	</g>
</g>
<g>
	<g>
		<path class="st2" d="M122.4,158.9c3.2,0,3.2-5,0-5S119.2,158.9,122.4,158.9L122.4,158.9z"/>
	</g>
</g>
<g>
	<g>
		<path class="st2" d="M123.1,190.5c3.2,0,3.2-5,0-5C119.8,185.5,119.8,190.5,123.1,190.5L123.1,190.5z"/>
	</g>
</g>
<g>
	<g>
		<path class="st2" d="M145.5,215.5c3.2,0,3.2-5,0-5S142.3,215.5,145.5,215.5L145.5,215.5z"/>
	</g>
</g>
<g>
	<g>
		<path class="st2" d="M161.4,212.2c3.2,0,3.2-5,0-5C158.2,207.2,158.2,212.2,161.4,212.2L161.4,212.2z"/>
	</g>
</g>
<g>
	<g>
		<path class="st2" d="M161.4,221c3.2,0,3.2-5,0-5C158.2,216,158.2,221,161.4,221L161.4,221z"/>
	</g>
</g>
<g>
	<g>
		<path class="st2" d="M150,225.9c3.2,0,3.2-5,0-5C146.8,220.9,146.8,225.9,150,225.9L150,225.9z"/>
	</g>
</g>
<g>
	<g>
		<path class="st2" d="M166,228.8c3.2,0,3.2-5,0-5C162.7,223.8,162.7,228.8,166,228.8L166,228.8z"/>
	</g>
</g>
<g>
	<g>
		<path class="st2" d="M168.9,215.8c3.2,0,3.2-5,0-5C165.7,210.8,165.7,215.8,168.9,215.8L168.9,215.8z"/>
	</g>
</g>
<g>
	<g>
		<path class="st2" d="M152,137.8c3.2,0,3.2-5,0-5C148.8,132.8,148.8,137.8,152,137.8L152,137.8z"/>
	</g>
</g>
<g>
	<g>
		<path class="st2" d="M155.9,150.5c3.2,0,3.2-5,0-5C152.7,145.5,152.7,150.5,155.9,150.5L155.9,150.5z"/>
	</g>
</g>
<g>
	<g>
		<path class="st2" d="M165.6,140.1c3.2,0,3.2-5,0-5S162.4,140.1,165.6,140.1L165.6,140.1z"/>
	</g>
</g>
<g>
	<g>
		<path class="st2" d="M152.6,103.7c3.2,0,3.2-5,0-5S149.4,103.7,152.6,103.7L152.6,103.7z"/>
	</g>
</g>
<g>
	<g>
		<path class="st2" d="M139,81.9c3.2,0,3.2-5,0-5S135.8,81.9,139,81.9L139,81.9z"/>
	</g>
</g>
<g>
	<g>
		<path class="st2" d="M146.8,83.6c3.2,0,3.2-5,0-5S143.6,83.6,146.8,83.6L146.8,83.6z"/>
	</g>
</g>
<g>
	<g>
		<path class="st2" d="M137,90c3.2,0,3.2-5,0-5S133.8,90,137,90L137,90z"/>
	</g>
</g>
<g>
	<g>
		<path class="st2" d="M127.3,167.1c3.2,0,3.2-5,0-5S124.1,167.1,127.3,167.1L127.3,167.1z"/>
	</g>
</g>
<g>
	<g>
		<path class="st2" d="M137,120.6c3.2,0,3.2-5,0-5S133.8,120.6,137,120.6L137,120.6z"/>
	</g>
</g>
<g>
	<g>
		<path class="st6" d="M146.8,122c-1.4,1.7-2.3,3.6-2.5,5.8c-0.2,2,0.8,4.4,3.2,4.4c2,0,3.4-2.1,4.2-3.7c0.9-1.9,1-3.9,0.6-6
			c-0.7-3.1-5.5-1.8-4.8,1.3c0.3,1.5-0.2,3-1.4,3.9c0.4-0.2,0.7-0.4,1.1-0.6c-0.1,0-0.2,0.1-0.3,0.1c0.4,0,0.9,0,1.3,0
			c-0.1,0-0.2,0-0.3-0.1c0.4,0.2,0.7,0.4,1.1,0.6c0.2,0.8,0.3,1,0.3,0.5c0-0.2,0-0.4,0-0.6c0-0.2,0.1-0.5,0.2-0.7
			c0.2-0.6,0.4-1.1,0.8-1.5c0.9-1,1-2.5,0-3.5C149.5,121.1,147.7,121,146.8,122L146.8,122z"/>
	</g>
</g>
<g>
	<g>
		<path class="st6" d="M122.2,145.4c-0.4,3.4,2,11.4,6.9,9.4c2.3-1,2.1-3.7,1.8-5.8c-0.4-2.4-1.3-4.7-2.8-6.7
			c-0.8-1.1-2.2-1.6-3.4-0.9c-1.1,0.6-1.7,2.3-0.9,3.4c0.8,1.1,1.5,2.2,1.9,3.5c0.2,0.5,0.3,1.1,0.4,1.6c0,0.4,0.1,0.8,0.1,1.2
			c-0.1,0.9,0,0.8,0.3-0.3c0.6-0.2,1.2-0.5,1.8-0.7c0.4,0.2,0.4,0.2,0.2,0s-0.3-0.4-0.4-0.6c-0.2-0.4-0.4-0.7-0.5-1.1
			c-0.3-0.9-0.3-1.9-0.1-2.8c0.2-1.4-1.3-2.5-2.5-2.5C123.2,142.9,122.4,144.1,122.2,145.4L122.2,145.4z"/>
	</g>
</g>
<g>
	<g>
		<path class="st6" d="M138.3,208.7c2.5,0.6,4.9,1.3,7.4,1.9c0.5,0.1,1.1,0.3,1.6,0.4c0.5,0.1,1,0.3,1.4,0.7
			c0.7-0.6,0.6-0.9-0.3-0.8c-0.5-0.1-0.9-0.2-1.4-0.4c-1.1-0.3-2.1-0.6-3.2-0.9c-0.7-0.2-2.5-0.3-3-0.6c0.8,0.5,2.8,0.5,3.8,0.7
			c0.6,0.1,1.1,0.2,1.7,0.3c0.6,0.4,1,0.2,1.2-0.6c-3.2-0.2-3.2,4.8,0,5c2.6,0.2,5-1.8,4.9-4.5c-0.1-3.2-2.9-4.3-5.6-4.9
			c-3-0.6-6.7-2-9.4,0c-2.4,1.8-2.5,5.1-0.4,7.1c2.3,2.2,6.6,2.6,9.6,3.4c2.6,0.7,5.7,0.7,6.8-2.3c2.6-7.1-9.7-8.3-13.8-9.4
			C136.5,203.1,135.2,207.9,138.3,208.7L138.3,208.7z"/>
	</g>
</g>
<g>
	<g>
		<path class="st6" d="M124.5,76.5c-0.6,3.7-2.2,8.7,1.3,11.4c3.1,2.4,6.7,0.2,7.6-3.2c0.4-1.8,0.3-3.7,0.1-5.5
			c-0.2-1.6-0.4-3.7-1.7-4.9s-3.3-1.2-4.7-0.2c-1.6,1.1-1.8,2.7-2.5,4.3c-1.3,2.9,3,5.5,4.3,2.5c0.2-0.6,0.5-1.1,0.7-1.7
			c0.1-0.3,0.2-0.7,0.3-1c-0.5-0.1-1.1-0.2-1.6-0.3c-0.1,0.2,0.3,1.9,0.4,2.3c0.1,0.8,0.2,1.7,0.1,2.5c0,0.4-0.2,0.8-0.3,1.2
			c-0.2,0.3-0.1,0.2,0.3-0.2c-0.1-0.4-0.1-0.7-0.1-1.1c0-1.6,0.5-3.3,0.7-4.9C129.8,74.7,125,73.3,124.5,76.5L124.5,76.5z"/>
	</g>
</g>
<g>
	<g>
		<path class="st6" d="M147.7,86.8c-4.1,1.3-7.4,4.5-8.5,8.7c-0.6,1.9-0.9,4.5,1.2,5.7c1.9,1.1,4.2,0,5.9-1c2.7-1.6,8.3-7.5,4-10.3
			c-1.9-1.3-4.4-0.6-6,0.9c-1.8,1.7-1.9,4.1-3.2,6.1c-1.7,2.7,2.6,5.2,4.3,2.5c0.5-0.8,0.9-1.7,1.2-2.7c0.2-0.4,0.3-0.9,0.5-1.3
			c0.1-0.3,0.7-0.9,0.7-1.2c-0.3-0.6-0.7-1.2-1-1.7c-0.1,0.3-0.3,0.5-0.4,0.8c-0.3,0.4-0.5,0.8-0.8,1.1c-0.6,0.7-1.4,1.3-2.3,1.7
			c-0.2,0.1-0.9,0.3-1,0.4c1,1.7,1.5,2.1,1.5,1.2c0-0.3,0.1-0.5,0.1-0.7c0.2-0.8,0.5-1.5,0.9-2.2c1-1.6,2.4-2.7,4.2-3.3
			C152,90.6,150.7,85.8,147.7,86.8L147.7,86.8z"/>
	</g>
</g>
<g>
	<g>
		<path class="st6" d="M113.3,117.9c1,0.2,1.9,0.5,2.8,0.9c0.6,0.3,1.9,0.8,2.2,1.4c-0.1-0.6-0.2-1.3-0.3-1.9c0.1-0.5,0.3,0-0.3-0.1
			c-0.2,0-0.4,0-0.6-0.1c-0.7-0.3-1.1-1-1.2-1.7c-0.9-3.1-5.7-1.8-4.8,1.3c1.3,4.4,6.5,7.4,10.4,4c4.9-4.2-3.5-8-6.8-8.7
			C111.5,112.4,110.1,117.2,113.3,117.9L113.3,117.9z"/>
	</g>
</g>
<g>
	<g>
		<path class="st6" d="M164.3,155.7c1.2,0,2.3,0.7,2.5,2.1c0-0.4,0-0.9,0-1.3c0,0.1-0.1,0.2-0.1,0.3c0.2-0.4,0.4-0.7,0.6-1.1
			c1-0.3,1.2-0.4,0.5-0.4c0-0.1-0.1-0.2-0.3-0.1c-0.3-0.1-0.5-0.2-0.8-0.4c-0.4-0.3-0.9-0.7-1.1-1.2c-0.5-1.2-1.7-2.1-3.1-1.7
			c-1.2,0.3-2.3,1.8-1.7,3.1c0.8,2,2.1,3.7,4.1,4.6c1.8,0.8,4.4,1.4,5.9-0.3c1.7-1.8,0.4-4.7-1-6.2s-3.5-2.4-5.5-2.3
			C161.1,150.8,161.1,155.8,164.3,155.7L164.3,155.7z"/>
	</g>
</g>
<g>
	<g>
		<path class="st7" d="M145.5,229.7c-19.7-14.5-30.4-41.1-35.5-64.2c-3.4-15.7-4.5-31.8-4.2-47.9c0.1-8,0.6-16.1,1.2-24.1
			c0.6-7,0.9-14.3,2.8-21.1c1.9-6.9,5.9-13.2,13.2-15c7.8-1.9,15.7,1.8,21.5,6.8c10.7,9.4,17.9,23.4,22.7,36.6
			c9.9,27.1,12.9,57.5,15.2,86.1c0.7,9.3,1.1,18.7,0.9,28.1c-0.2,8.7,1,21.5-9.7,23.8c-5.2,1.1-11.8,1.1-16.7-1.3
			c-4.1-2-7.5-4.6-11-7.4c-1.9-1.5-4.6,1.2-2.7,2.7c7.3,5.7,13.8,10.1,23.2,10.3c5.6,0.1,12.3-0.5,16.3-5c4.8-5.5,4.1-15.3,4.3-22.1
			c0.7-19.4-1.6-38.8-4-58c-2-15.9-4.3-31.9-8.7-47.3c-4.2-14.8-10.5-29.2-20.1-41.4C146,59,132.5,48.9,118.7,54.9
			c-13.2,5.8-14.1,22.5-15.2,34.8c-1.7,19.2-2.4,38.6-0.3,57.8c2,18.5,6.7,36.7,15.1,53.3c6.2,12.2,14.2,24.1,25.2,32.2
			C145.5,234.4,147.4,231.1,145.5,229.7z"/>
	</g>
</g>
</svg>
