<?xml version="1.0" encoding="utf-8"?>
<!-- Generator: Adobe Illustrator 18.1.1, SVG Export Plug-In . SVG Version: 6.00 Build 0)  -->
<svg version="1.1" id="Layer_1" xmlns="http://www.w3.org/2000/svg" xmlns:xlink="http://www.w3.org/1999/xlink" x="0px" y="0px"
	 viewBox="0 0 792 1080" enable-background="new 0 0 792 1080" xml:space="preserve">
<g>
	<g>
		<path fill="#008B8B" d="M209.6,597.6c35.5,35.5,59.1,59.1,106.4,70.9c47.3,11.8,94.6,23.6,141.9,0c47.3-11.8,106.4-47.3,130-94.6
			c47.3-59.1,47.3-153.7,0-212.8c-47.3-70.9-130-94.6-212.8-106.4c-70.9,0-141.9,23.6-177.3,82.7c-23.6,23.6-35.5,59.1-47.3,94.6
			c-23.6,70.9-23.6,141.9,35.5,201c35.5,35.5,70.9,59.1,118.2,70.9c94.6,23.6,177.3,11.8,260.1-47.3
			c82.7-70.9,94.6-189.1,47.3-271.9C564.2,302.1,469.6,243,375.1,243c-118.2,11.8-201,118.2-212.8,224.6
			c-11.8,118.2,70.9,236.4,201,248.2c94.6,11.8,189.1-70.9,189.1-165.5S493.3,373,386.9,361.2c0,0,0,0-11.8,0
			c11.8,0,35.5,11.8,47.3,11.8c0,0,0,0-11.8,0c11.8,11.8,23.6,11.8,35.5,23.6c0,0-11.8,0-11.8-11.8c11.8,11.8,23.6,23.6,35.5,23.6
			l0,0c11.8,11.8,11.8,23.6,23.6,35.5c0,0,0-11.8-11.8-11.8c0,11.8,11.8,23.6,11.8,47.3v-11.8c0,11.8,0,35.5,0,47.3
			c0-11.8,0-11.8,0-11.8c0,11.8-11.8,35.5-11.8,47.3c0-11.8,11.8-35.5,23.6-47.3c-11.8,11.8-11.8,23.6-23.6,35.5
			c0,0,0-11.8,11.8-11.8c-11.8,11.8-23.6,23.6-23.6,35.5l0,0c-12,11.7-23.8,11.7-35.6,23.5c0,0,0,0,11.8,0
			c-11.8,0-23.6,11.8-47.3,11.8c0,0,0,0,11.8,0c-11.8,0-35.5,0-47.3,0c0,0,0,0,11.8,0c-11.8,0-35.5-11.8-47.3-11.8
			c11.8,0,11.8,0,23.6,11.8c-11.8-11.8-23.6-11.8-35.5-23.6c11.8,0,11.8,11.8,23.6,11.8c-11.8-11.8-23.6-23.6-35.5-23.6L316,574
			c-11.8-11.8-11.8-23.6-23.6-35.5c0,0,0,11.8,11.8,11.8c0-11.8-11.8-23.6-11.8-47.3v11.8c0-11.8,0-35.5,0-47.3v11.8
			c0-11.8,11.8-35.5,11.8-47.3v11.8c11.8-11.8,11.8-23.6,23.6-35.5c0,0,0,11.8-11.8,11.8c11.8-11.8,23.6-23.6,23.6-35.5l-11.8,11.8
			c11.8-11.8,23.6-11.8,35.5-23.6c0,0-11.8,0-11.8,11.8c11.8,0,23.6-11.8,47.3-11.8c-11.8,0-11.8,0-23.6,0c11.8,0,35.5,0,47.3,0
			c-11.8,0-23.6,0-35.5,0c11.8,0,35.5,11.8,47.3,11.8c-11.8,0-35.5-11.8-47.3-11.8c11.8,11.8,23.6,11.8,35.5,23.6l0,0
			c23.6,35.5,47.3,70.9,70.9,106.4c0,0,0,0,0-11.8c0,11.8,0,35.5,0,47.3c0,0,0,0,0-11.8c0,11.8-11.8,35.5-11.8,47.3
			c11.8-23.6,11.8-35.5,23.6-59.1c-11.8,11.8-11.8,23.6-23.6,35.5c0,0,0-11.8,11.8-11.8c-11.8,11.8-23.6,23.6-23.6,35.5l0,0
			c-23.6,11.8-59.1,23.6-82.7,35.5h11.8c-11.8,0-35.5,0-47.3,0c11.8,0,35.5,0,47.3,11.8c-11.8,0-35.5-11.8-47.3-11.8h11.8
			c-11.8-11.8-23.6-11.8-35.5-23.6c0,0,11.8,0,11.8,11.8C327.8,585.8,316,574,304.2,574l0,0c-11.8-11.8-11.8-23.6-23.6-35.5
			c0,0,0,0,0,11.8c-11.8-35.5-11.8-59.1-11.8-94.6c0,0,0,0,0,11.8c0-11.8,11.8-35.5,11.8-47.3l0,0c11.8-11.8,11.8-23.6,23.6-35.5
			l0,0c11.8-11.8,23.6-23.6,23.6-35.5l-11.8,12c11.8-11.8,23.6-11.8,35.5-23.6c0,0,0,0-11.8,0c11.8,0,23.6-11.8,47.3-11.8
			c-11.8,0-11.8,0-23.6,0c11.8,0,35.5,0,47.3,0h-11.8c11.8,0,35.5,11.8,47.3,11.8c-11.8,0-11.8,0-23.6-11.8
			c11.8,11.8,23.6,11.8,35.5,23.6c0,0-11.8,0-11.8-11.8c11.8,11.8,23.6,23.6,35.5,23.6l0,0c-35.5-35.5-70.9-59.1-118.2-59.1
			s-94.6,11.8-130,47.3c-35.5,35.5-59.1,70.9-59.1,118.2C174.1,514.9,174.1,574,209.6,597.6L209.6,597.6z"/>
	</g>
</g>
<g>
	<path fill="#004259" d="M363.3,526.7c23.6,0,59.1-11.8,59.1-35.5c0-11.8,0-35.5-23.6-35.5s-35.5,11.8-23.6,35.5
		c0,11.8,23.6,23.6,35.5,11.8c11.8,0,23.6-11.8,35.5-23.6c0,0,11.8-11.8,0-23.6L434.4,444c-11.8-11.8-35.5-23.6-47.3-11.8
		c-23.6,11.8-23.6,47.3-11.8,59.1c11.8,23.6,47.3,23.6,59.1,11.8c11.8-11.8,11.8-23.6,0-47.3c-11.8-11.8-23.6-23.6-35.5-35.5
		c-23.6-11.8-47.3-11.8-47.3,11.8"/>
	<g>
		<path fill="#004259" d="M386.9,644.9c59.1-11.8,130-47.3,153.7-106.4c35.5-94.6-47.3-201-141.9-189.1
			c-47.3,0-82.7,23.6-106.4,59.1c-35.5,47.3-23.6,118.2,11.8,165.5c47.3,70.9,165.5,70.9,224.6,11.8c35.5-35.5,59.1-82.7,47.3-141.9
			c-11.8-47.3-35.5-82.7-70.9-94.6c-35.5-23.6-70.9-35.5-118.2-23.6c-47.3,11.8-94.6,47.3-106.4,94.6c-23.6,70.9,0,153.7,59.1,189.1
			c70.9,47.3,165.5,35.5,212.8-35.5c59.1-82.7,23.6-189.1-59.1-236.4s-189.1-23.6-224.6,70.9c-23.6,59.1,11.8,130,70.9,153.7
			c59.1,23.6,130-11.8,153.7-70.9c-11.8,35.5-35.5,47.3-59.1,59.1c-11.8,0-11.8,0-11.8,0c-11.8,0-23.6,0-35.5,0h11.8
			c-11.8,0-23.6,0-35.5-11.8H375c0,0-11.8,0-11.8-11.8c11.8,0,11.8,0,0,0c-23.6-11.8,11.8,11.8-11.8-11.8L339.6,503
			c0-11.8,0-11.8,0,0c0-11.8,0-23.6,0-35.5l0,0c0-11.8,0-23.6,11.8-35.5c0,23.6,0,11.8,23.6-23.6c47.3-11.8,59.1-23.6,35.5-23.6
			c11.8,0,23.6,0,35.5,0c-11.8,0-11.8,0-11.8,0c11.8,0,23.6,0,35.5,11.8c-11.8,0-11.8,0,11.8,11.8c-11.8-11.8,0,0,11.8,11.8
			s11.8,23.6,11.8,35.5v-11.8c0,11.8,0,23.6,0,35.5v-11.8c0,11.8,0,23.6-11.8,35.5c0-11.8,0,0-11.8,11.8
			c-11.8,23.6-35.5,35.5-59.1,35.5c-11.8,0-23.6,0-35.5,0h11.8c-11.8,0-23.6,0-35.5-11.8c23.6,11.8-23.6-11.8-11.8,0
			c23.6,23.6-23.6-35.5-23.6-47.3c0-23.6,0-35.5,0-59.1c11.8-11.8,11.8-23.6,11.8-11.8s0,0,11.8-11.8
			c-23.6,23.6,59.1-23.6,23.6-11.8c11.8,0,23.6,0,35.5,0h-11.8c11.8,0,23.6,0,35.5,11.8c23.6,11.8,47.3,35.5,59.1,70.9
			c0,11.8,0,23.6,0,35.5l0,0c0,11.8,0,23.6-11.8,35.5c-11.8,35.5-35.5,47.3-59.1,59.1c-11.8,0-23.6,0-35.5,0l0,0
			c-11.8,0-23.6,0-35.5-11.8c-11.8,0-23.6-11.8-35.5-23.6c-11.8-11.8-23.6-23.6-23.6-35.5c0-11.8,0-23.6,0-35.5V515
			c0-11.8,0-23.6,11.8-35.5c0-11.8,11.8-23.6,35.5-35.5c23.6-11.8,0,0,0,0s35.5-11.8,11.8,0c-11.8,0-11.8,0-11.8,0
			c-59.1,11.8-106.4,82.7-94.6,141.9C268.7,621.2,327.8,656.7,386.9,644.9L386.9,644.9z"/>
	</g>
</g>
</svg>
