<?xml version="1.0" encoding="utf-8"?>
<!-- Generator: Adobe Illustrator 18.1.1, SVG Export Plug-In . SVG Version: 6.00 Build 0)  -->
<svg version="1.1" id="Layer_1" xmlns="http://www.w3.org/2000/svg" xmlns:xlink="http://www.w3.org/1999/xlink" x="0px" y="0px"
	 viewBox="0 0 720 1080" enable-background="new 0 0 720 1080" xml:space="preserve">
<g>
	<g>
		<path fill="#DBD879" d="M247.8,927.3c-19-14-29.3-39.5-34.1-61.9c-3.3-15.2-4.2-30.8-3.9-46.3c0.3-13.6,0.2-28.6,3.7-41.9
			c1.9-7.1,6.1-13.6,13.7-15.3c8.3-1.8,16.3,2.4,22.2,8c10,9.5,16.6,22.8,21.1,35.7c9,25.8,11.9,54.6,13.9,81.8
			c0.7,9,1,18.1,0.6,27.2c-0.2,4.2-0.2,8.6-1.1,12.7c-1.3,6.1-5.8,8.6-11.6,9.1c-4.9,0.5-10,0.3-14.4-2c-3.7-1.9-6.9-4.4-10.2-6.9
			c-0.6-0.5-1.5,0.4-0.9,0.9c6.1,4.8,11.8,9,19.8,9.4c4.9,0.2,10.9,0.1,14.8-3.4c4.9-4.4,4.3-12.9,4.6-18.8
			c0.8-18.5-1.1-36.9-3.4-55.2c-1.9-15.1-4-30.2-8-44.9c-3.9-14.3-9.8-28.3-19-40.1c-7.4-9.4-19.4-18.7-31.9-13.6
			c-12,4.9-12.9,20.3-13.9,31.4c-1.6,18.5-2.3,37.3-0.2,55.8c1.9,17,6.2,33.7,13.8,49c5.7,11.5,13.2,22.8,23.6,30.5
			C247.8,928.8,248.4,927.8,247.8,927.3z"/>
	</g>
</g>
<g opacity="0.58">
	<g>
		<path fill="#DBD879" d="M247.9,927.8c-18.1-14-27.5-39-32-60.7c-3.1-14.8-4-30.1-3.8-45.2c0.2-13.6,0.1-28.7,3.5-42
			c1.6-6.5,5.1-12.9,11.9-14.9c8.2-2.4,16.2,2,21.8,7.6c9.4,9.4,15.5,22.3,19.7,34.8c8.6,25.6,11.2,54,13.2,80.8
			c0.6,8.2,0.9,16.4,0.7,24.6c-0.2,8.4,1,21-9.4,23.4C263.1,938.6,255.5,934.1,247.9,927.8c-0.6-0.5-1.5,0.4-0.9,0.9
			c5.9,4.9,11.3,9,19.3,9.3c4.7,0.1,10.3-0.2,13.8-3.8c4.1-4.2,3.6-12,3.9-17.3c0.9-18.1-0.9-36.2-3.1-54.1
			c-1.8-14.9-3.7-29.9-7.4-44.5c-3.6-14.1-9-27.9-17.6-39.6c-6.7-9.2-17.9-19.2-30.2-14.3c-11.3,4.5-12.4,18.9-13.3,29.3
			c-1.6,17.8-2.3,35.8-0.7,53.6c1.5,16.7,5.2,33.3,12,48.7c5.4,12.1,12.7,24.5,23.3,32.7C247.7,929.2,248.6,928.3,247.9,927.8z"/>
	</g>
</g>
<g>
	<g>
		<path fill="#DDDDA2" d="M221.3,789.9c3.2,0,3.2-5,0-5C218.1,784.9,218.1,789.9,221.3,789.9L221.3,789.9z"/>
	</g>
</g>
<g>
	<g>
		<path fill="#DDDDA2" d="M219.9,807.9c3.2,0,3.2-5,0-5C216.7,802.9,216.7,807.9,219.9,807.9L219.9,807.9z"/>
	</g>
</g>
<g>
	<g>
		<path fill="#DDDDA2" d="M237.2,807.9c3.2,0,3.2-5,0-5C234,802.9,234,807.9,237.2,807.9L237.2,807.9z"/>
	</g>
</g>
<g>
	<g>
		<path fill="#DDDDA2" d="M243,828.4c3.2,0,3.2-5,0-5C239.8,823.4,239.8,828.4,243,828.4L243,828.4z"/>
	</g>
</g>
<g>
	<g>
		<path fill="#DDDDA2" d="M275.9,903.8c3.2,0,3.2-5,0-5C272.7,898.8,272.7,903.8,275.9,903.8L275.9,903.8z"/>
	</g>
</g>
<g>
	<g>
		<path fill="#DDDDA2" d="M231.3,816.2c3.2,0,3.2-5,0-5C228.1,811.2,228.1,816.2,231.3,816.2L231.3,816.2z"/>
	</g>
</g>
<g>
	<g>
		<path fill="#DDDDA2" d="M223,830.1c3.2,0,3.2-5,0-5C219.8,825.1,219.8,830.1,223,830.1L223,830.1z"/>
	</g>
</g>
<g>
	<g>
		<path fill="#DDDDA2" d="M241,834.5c3.2,0,3.2-5,0-5C237.8,829.5,237.8,834.5,241,834.5L241,834.5z"/>
	</g>
</g>
<g>
	<g>
		<path fill="#DDDDA2" d="M255.5,894.4c7.8,0,15.4-6.9,15-15c-0.4-8.1-6.6-15-15-15c-7.8,0-15.4,6.9-15,15
			C240.9,887.5,247.1,894.4,255.5,894.4L255.5,894.4z"/>
	</g>
</g>
<g>
	<g>
		<path fill="#C8CE7A" d="M244.9,867.8c-2.4,3.1-4.4,5.7-5.3,9.6c-0.9,3.9-0.9,8.2,0.5,11.9c1.7,4.4,4.3,8.3,8.6,10.7
			c5.8,3.2,13,2.8,18.3-1.3c5.9-4.5,7.6-11.5,7.4-18.7c-0.1-5.8-3.3-11.4-8.4-14.4c-2.5-1.5-5.7-2.4-8.6-3c-5.9-1.3-12-0.7-16.6,3.8
			c-2.8,2.8-4.2,6.5-4.9,10.3c-1.5,8-0.1,15.5,5.7,21.5c6.1,6.3,16.7,7.1,23.8,2.3c6.8-4.5,11.2-12.5,10.1-20.7
			c-1.4-10.3-11.1-16.1-20.9-16.5c-10.6-0.5-19.6,8-19.8,18.5c-0.2,7.8,7,15.4,15,15c8.3-0.4,14.8-6.6,15-15c0-0.2,0-0.4,0-0.6
			c-0.2,1.3-0.4,2.7-0.5,4c0-0.2,0.1-0.4,0.1-0.6c-0.5,1.2-1,2.4-1.5,3.6c0.1-0.4,0.3-0.7,0.6-1c-0.8,1-1.6,2-2.3,3
			c0.1-0.1,0.3-0.3,0.4-0.4c-1,0.8-2,1.6-3,2.3c0.3-0.3,0.6-0.5,1-0.6c-1.2,0.5-2.4,1-3.6,1.5c0.4-0.2,0.8-0.3,1.2-0.3
			c-1.3,0.2-2.7,0.4-4,0.5c0.5-0.1,1-0.1,1.5,0c-1.3-0.2-2.7-0.4-4-0.5c1.5,0.2,2.8,0.7,4.2,1.3c-1.2-0.5-2.4-1-3.6-1.5
			c0.4,0.1,0.7,0.3,1,0.6c-1-0.8-2-1.6-3-2.3c0.1,0.1,0.3,0.3,0.4,0.4c-0.8-1-1.6-2-2.3-3c0.1,0.2,0.2,0.4,0.3,0.6
			c-0.5-1.2-1-2.4-1.5-3.6c0,0.2,0.1,0.4,0.1,0.7c-0.2-1.3-0.4-2.7-0.5-4c0,0.2,0,0.5,0,0.7c0.2-1.3,0.4-2.7,0.5-4
			c-0.1,0.7-0.3,1.3-0.6,2c0.5-1.2,1-2.4,1.5-3.6c-0.3,0.6-0.6,1.1-1,1.7c0.8-1,1.6-2,2.3-3c-0.4,0.5-0.9,1-1.4,1.4
			c1-0.8,2-1.6,3-2.3c-0.3,0.3-0.7,0.5-1.1,0.7c1.2-0.5,2.4-1,3.6-1.5c-0.4,0.2-0.8,0.3-1.2,0.4c1.3-0.2,2.7-0.4,4-0.5
			c-0.4,0.1-0.8,0.1-1.2,0c1.3,0.2,2.7,0.4,4,0.5c-0.4-0.1-0.8-0.2-1.2-0.3c1.2,0.5,2.4,1,3.6,1.5c-0.4-0.2-0.7-0.4-1-0.7
			c1,0.8,2,1.6,3,2.3c-0.3-0.3-0.6-0.6-0.8-0.9c0.8,1,1.6,2,2.3,3c-0.2-0.3-0.4-0.7-0.6-1.1c0.5,1.2,1,2.4,1.5,3.6
			c-0.2-0.6-0.4-1.2-0.5-1.8c0.2,1.3,0.4,2.7,0.5,4c-0.1-0.9,0-1.7,0-2.6c-0.2,1.3-0.4,2.7-0.5,4c0.2-1.3,0.5-2.6,0.9-3.8
			c-0.5,1.2-1,2.4-1.5,3.6c0.1-0.1,0.1-0.2,0.2-0.3c-3,2.3-6,4.6-9,6.9c0.2-0.1,0.4-0.1,0.5-0.2c-1.3,0.2-2.7,0.4-4,0.5
			c0.2,0,0.4,0,0.6,0.1c-1.3-0.2-2.7-0.4-4-0.5c1.8,0.4,3.6,0.9,5.3,1.5c-1.2-0.5-2.4-1-3.6-1.5c0.3,0.1,0.6,0.3,0.9,0.5
			c-1-0.8-2-1.6-3-2.3c0.1,0.1,0.2,0.3,0.3,0.4c-1.3-2.2-2.6-4.4-3.9-6.6c0.1,0.2,0.1,0.5,0.2,0.7c-0.2-1.3-0.4-2.7-0.5-4
			c0,1.5-0.1,2.9-0.3,4.4c0.2-1.3,0.4-2.7,0.5-4c-0.1,0.4-0.2,0.8-0.3,1.2c0.5-1.2,1-2.4,1.5-3.6c-0.1,0.4-0.3,0.7-0.6,1
			c0.8-1,1.6-2,2.3-3c-0.1,0.1-0.3,0.2-0.4,0.3c1-0.8,2-1.6,3-2.3c-0.2,0.1-0.3,0.1-0.5,0.2c2.5-0.7,5-1.4,7.6-2c-0.2,0-0.4,0-0.6,0
			c1.3,0.2,2.7,0.4,4,0.5c-0.2,0-0.4-0.1-0.5-0.1c1.2,0.5,2.4,1,3.6,1.5c-0.2-0.1-0.3-0.2-0.5-0.3c1,0.8,2,1.6,3,2.3
			c-0.3-0.2-0.6-0.5-0.8-0.9c0.8,1,1.6,2,2.3,3c-0.1-0.2-0.2-0.4-0.3-0.5c0.5,1.2,1,2.4,1.5,3.6c-0.3-0.7-0.4-1.2-0.6-1.9
			c0.2,1.3,0.4,2.7,0.5,4c-0.1-0.4-0.1-0.9,0-1.3c-0.2,1.3-0.4,2.7-0.5,4c0.1-0.7,0.2-1.3,0.5-2c-0.5,1.2-1,2.4-1.5,3.6
			c0.2-0.4,0.4-0.8,0.6-1.2c-0.8,1-1.6,2-2.3,3c0.1-0.2,0.3-0.4,0.4-0.5c2.6-3.2,4.4-6.3,4.4-10.6c0-3.7-1.6-8.1-4.4-10.6
			c-2.9-2.6-6.6-4.6-10.6-4.4C251.8,863.6,247.3,864.8,244.9,867.8L244.9,867.8z"/>
	</g>
</g>
<g>
	<path fill="#DDDD73" d="M252,880c0.4,2.1,1.3,4.5,3.3,4.9c1.4,0.3,3-0.7,3.1-2.1c0.1-1.4-1.5-2.7-2.8-2.2c-1.1,0.4-1.5,1.8-1.2,3
		c0.3,1.1,1.3,1.9,2.3,2.5c0.5,0.3,1.1,0.5,1.7,0.3c0.4-0.2,0.7-0.6,1-1c0.8-1.2,1.5-2.7,1-4c-0.8-2-3.9-2.1-5.5-0.6
		c-1.5,1.4-1.8,4.2-0.1,5.4c1,0.8,2.5,0.7,3.6,0.1c1.1-0.6,1.9-1.7,2.4-2.9c0.7-1.6,0.5-4-1.2-4.4"/>
	<g>
		<path fill="#DBD858" d="M242.3,882.7c1.2,5.4,4.7,10.6,10.3,11.9c8.4,2,16.7-4.9,15.6-13.6c-0.5-3.8-2.8-7.1-6.2-9
			c-4.6-2.5-10-1.6-13.8,1.7c-5.6,4.9-4.7,14.2,0.7,18.8c3.3,2.8,7.6,4.6,12,3.4c3.6-0.9,6.5-3.7,8-7.1c1.5-3.3,2.3-6.7,1.2-10.3
			c-1.2-4-4.4-7.3-8.5-8.4c-5.9-1.6-12.7,0.6-15.8,6.1c-3.5,6.2-2.3,14.5,4,18.4c7,4.3,16.3,0.8,19.7-6.4c3.5-7.5,1.2-16.2-7.2-19
			c-5-1.7-11.1,1.9-12.3,7c-1.3,5.5,1.7,10.5,7,12.3c-2.7-0.8-4.4-2.3-5.2-4.6c-0.4-1-0.4-1.1-0.3-0.5c-0.1-0.9-0.2-1.8-0.4-2.7
			c0,0.4,0,0.8,0,1.2c0.1-0.9,0.2-1.8,0.4-2.7c0,0.1-0.2,0.8-0.2,0.8c0.2-0.5,0.4-1,0.6-1.5c-0.4,0.7-0.3,0.6,0.2-0.1
			c1.3-1.7-1,0.7,0.7-0.6c0.4-0.4,0.8-0.6,1.3-0.8c0.9-0.3,0.9-0.4,0.1-0.2c0.9-0.1,1.8-0.2,2.7-0.4c-0.2,0-0.4,0-0.5,0
			c0.9,0.1,1.8,0.2,2.7,0.4c-1.7-0.3-0.8,0.2,2.6,1.7c1.7,3.6,2.3,4.6,1.8,2.9c0.1,0.9,0.2,1.8,0.4,2.7c-0.1-0.5-0.1-0.8,0-1.3
			c-0.1,0.9-0.2,1.8-0.4,2.7c0.2-1,0-0.6-0.6,1.1c0.5-0.9,0.2-0.5-0.8,1c-0.8,0.9-1.8,1.4-3,1.7c0.3-0.1,0.5-0.1,0.8-0.2
			c-0.9,0.1-1.8,0.2-2.7,0.4c0.4,0,0.8,0,1.2,0c-0.9-0.1-1.8-0.2-2.7-0.4c1,0.3,0.5,0.1-1.3-0.6c-1.7-1.1-2.9-2.5-3.5-4.3
			c-0.1-0.9-0.2-1.8-0.4-2.7c0,0.3,0,0.7,0,1c0.1-0.9,0.2-1.8,0.4-2.7c-0.4,1.6,1-1.6,0.3-0.6c-1.9,2.6,3.1-2.7,4-2.8
			c1.8,0,3.5,0,5.3,0c1.4,0.7,1.7,0.9,1.1,0.5c-0.7-0.4-0.3-0.1,1,0.8c-1.7-1.6,1.9,4.6,1.4,2.4c0.1,0.9,0.2,1.8,0.4,2.7
			c0-0.3,0-0.6,0-0.9c-0.1,0.9-0.2,1.8-0.4,2.7c-0.8,2.5-2.6,4.2-5.3,5.2c-0.9,0.1-1.8,0.2-2.7,0.4c0.2,0,0.3,0,0.5,0
			c-0.9-0.1-1.8-0.2-2.7-0.4c-2.6-0.9-4.3-2.6-5.1-5.1c-0.1-0.9-0.2-1.8-0.4-2.7c0,0.2,0,0.3,0,0.5c0.1-0.9,0.2-1.8,0.4-2.7
			c0.4-1.2,1-2.1,2-2.8c0.7-1,1.6-1.7,2.8-2c0.9-0.1,1.8-0.2,2.7-0.4c-0.3,0.1-0.6,0-0.9,0c0.9,0.1,1.8,0.2,2.7,0.4
			c1.4,0.4,2.6,1.3,3.4,2.4c1.4,1.8,0,0,0.1-0.1c0.1-0.1,0.8,2.5,0.5,1.1c-0.1-0.5-0.2-0.9-0.3-1.4c-1.1-5.1-7.3-8.6-12.3-7
			C243.9,872.1,241.1,877.2,242.3,882.7L242.3,882.7z"/>
	</g>
</g>
<g>
	<g>
		<path fill="#DDDDA2" d="M249.8,816.7c3.2,0,3.2-5,0-5C246.6,811.7,246.6,816.7,249.8,816.7L249.8,816.7z"/>
	</g>
</g>
<g>
	<g>
		<path fill="#DDDDA2" d="M259.9,819c3.2,0,3.2-5,0-5C256.7,814,256.7,819,259.9,819L259.9,819z"/>
	</g>
</g>
<g>
	<g>
		<path fill="#DDDDA2" d="M243.6,843.7c3.2,0,3.2-5,0-5C240.4,838.7,240.4,843.7,243.6,843.7L243.6,843.7z"/>
	</g>
</g>
<g>
	<g>
		<path fill="#DDDDA2" d="M230.6,836.9c3.2,0,3.2-5,0-5C227.4,831.9,227.4,836.9,230.6,836.9L230.6,836.9z"/>
	</g>
</g>
<g>
	<g>
		<path fill="#DDDDA2" d="M226.4,881.9c3.2,0,3.2-5,0-5C223.2,876.9,223.2,881.9,226.4,881.9L226.4,881.9z"/>
	</g>
</g>
<g>
	<g>
		<path fill="#DDDDA2" d="M228.6,795.9c3.2,0,3.2-5,0-5C225.4,790.9,225.4,795.9,228.6,795.9L228.6,795.9z"/>
	</g>
</g>
<g>
	<g>
		<path fill="#DDDDA2" d="M219.9,843.7c3.2,0,3.2-5,0-5C216.7,838.7,216.7,843.7,219.9,843.7L219.9,843.7z"/>
	</g>
</g>
<g>
	<g>
		<path fill="#DDDDA2" d="M224.4,774.8c3.2,0,3.2-5,0-5C221.2,769.8,221.2,774.8,224.4,774.8L224.4,774.8z"/>
	</g>
</g>
<g>
	<g>
		<path fill="#DDDDA2" d="M245.6,797.9c3.2,0,3.2-5,0-5C242.4,792.9,242.4,797.9,245.6,797.9L245.6,797.9z"/>
	</g>
</g>
<g>
	<g>
		<path fill="#DDDDA2" d="M248.5,808.9c3.2,0,3.2-5,0-5C245.3,803.9,245.3,808.9,248.5,808.9L248.5,808.9z"/>
	</g>
</g>
<g>
	<g>
		<path fill="#DDDDA2" d="M269.6,822.9c3.2,0,3.2-5,0-5C266.4,817.9,266.4,822.9,269.6,822.9L269.6,822.9z"/>
	</g>
</g>
<g>
	<g>
		<path fill="#DDDDA2" d="M233.4,903.8c3.2,0,3.2-5,0-5C230.2,898.8,230.2,903.8,233.4,903.8L233.4,903.8z"/>
	</g>
</g>
<g>
	<g>
		<path fill="#DDDDA2" d="M247.2,853.8c3.2,0,3.2-5,0-5C244,848.8,244,853.8,247.2,853.8L247.2,853.8z"/>
	</g>
</g>
<g>
	<g>
		<path fill="#DDDDA2" d="M257,859.9c3.2,0,3.2-5,0-5C253.7,854.9,253.7,859.9,257,859.9L257,859.9z"/>
	</g>
</g>
<g>
	<g>
		<path fill="#DDDDA2" d="M226.4,859.9c3.2,0,3.2-5,0-5C223.2,854.9,223.2,859.9,226.4,859.9L226.4,859.9z"/>
	</g>
</g>
<g>
	<g>
		<path fill="#DDDDA2" d="M227.1,891.5c3.2,0,3.2-5,0-5C223.8,886.5,223.8,891.5,227.1,891.5L227.1,891.5z"/>
	</g>
</g>
<g>
	<g>
		<path fill="#DDDDA2" d="M249.5,916.5c3.2,0,3.2-5,0-5C246.3,911.5,246.3,916.5,249.5,916.5L249.5,916.5z"/>
	</g>
</g>
<g>
	<g>
		<path fill="#DDDDA2" d="M265.4,913.2c3.2,0,3.2-5,0-5C262.2,908.2,262.2,913.2,265.4,913.2L265.4,913.2z"/>
	</g>
</g>
<g>
	<g>
		<path fill="#DDDDA2" d="M265.4,922c3.2,0,3.2-5,0-5C262.2,917,262.2,922,265.4,922L265.4,922z"/>
	</g>
</g>
<g>
	<g>
		<path fill="#DDDDA2" d="M254,926.9c3.2,0,3.2-5,0-5C250.8,921.9,250.8,926.9,254,926.9L254,926.9z"/>
	</g>
</g>
<g>
	<g>
		<path fill="#DDDDA2" d="M270,929.8c3.2,0,3.2-5,0-5C266.7,924.8,266.7,929.8,270,929.8L270,929.8z"/>
	</g>
</g>
<g>
	<g>
		<path fill="#DDDDA2" d="M272.9,916.8c3.2,0,3.2-5,0-5C269.7,911.8,269.7,916.8,272.9,916.8L272.9,916.8z"/>
	</g>
</g>
<g>
	<g>
		<path fill="#DDDDA2" d="M256,838.8c3.2,0,3.2-5,0-5C252.8,833.8,252.8,838.8,256,838.8L256,838.8z"/>
	</g>
</g>
<g>
	<g>
		<path fill="#DDDDA2" d="M259.9,851.5c3.2,0,3.2-5,0-5C256.7,846.5,256.7,851.5,259.9,851.5L259.9,851.5z"/>
	</g>
</g>
<g>
	<g>
		<path fill="#DDDDA2" d="M269.6,841.1c3.2,0,3.2-5,0-5C266.4,836.1,266.4,841.1,269.6,841.1L269.6,841.1z"/>
	</g>
</g>
<g>
	<g>
		<path fill="#DDDDA2" d="M256.6,804.7c3.2,0,3.2-5,0-5C253.4,799.7,253.4,804.7,256.6,804.7L256.6,804.7z"/>
	</g>
</g>
<g>
	<g>
		<path fill="#DDDDA2" d="M243,782.9c3.2,0,3.2-5,0-5C239.8,777.9,239.8,782.9,243,782.9L243,782.9z"/>
	</g>
</g>
<g>
	<g>
		<path fill="#DDDDA2" d="M250.8,784.6c3.2,0,3.2-5,0-5C247.6,779.6,247.6,784.6,250.8,784.6L250.8,784.6z"/>
	</g>
</g>
<g>
	<g>
		<path fill="#DDDDA2" d="M241,791c3.2,0,3.2-5,0-5C237.8,786,237.8,791,241,791L241,791z"/>
	</g>
</g>
<g>
	<g>
		<path fill="#DDDDA2" d="M231.3,868.1c3.2,0,3.2-5,0-5C228.1,863.1,228.1,868.1,231.3,868.1L231.3,868.1z"/>
	</g>
</g>
<g>
	<g>
		<path fill="#DDDDA2" d="M241,821.6c3.2,0,3.2-5,0-5C237.8,816.6,237.8,821.6,241,821.6L241,821.6z"/>
	</g>
</g>
<g>
	<g>
		<path fill="#F4D369" d="M250.8,823c-1.4,1.7-2.3,3.6-2.5,5.8c-0.2,2,0.8,4.4,3.2,4.4c2,0,3.4-2.1,4.2-3.7c0.9-1.9,1-3.9,0.6-6
			c-0.7-3.1-5.5-1.8-4.8,1.3c0.3,1.5-0.2,3-1.4,3.9c0.4-0.2,0.7-0.4,1.1-0.6c-0.1,0-0.2,0.1-0.3,0.1c0.4,0,0.9,0,1.3,0
			c-0.1,0-0.2,0-0.3-0.1c0.4,0.2,0.7,0.4,1.1,0.6c0.2,0.8,0.3,1,0.3,0.5c0-0.2,0-0.4,0-0.6c0-0.2,0.1-0.5,0.2-0.7
			c0.2-0.6,0.4-1.1,0.8-1.5c0.9-1,1-2.5,0-3.5C253.5,822.1,251.7,822,250.8,823L250.8,823z"/>
	</g>
</g>
<g>
	<g>
		<path fill="#F4D369" d="M226.2,846.4c-0.4,3.4,2,11.4,6.9,9.4c2.3-1,2.1-3.7,1.8-5.8c-0.4-2.4-1.3-4.7-2.8-6.7
			c-0.8-1.1-2.2-1.6-3.4-0.9c-1.1,0.6-1.7,2.3-0.9,3.4c0.8,1.1,1.5,2.2,1.9,3.5c0.2,0.5,0.3,1.1,0.4,1.6c0,0.4,0.1,0.8,0.1,1.2
			c-0.1,0.9,0,0.8,0.3-0.3c0.6-0.2,1.2-0.5,1.8-0.7c0.4,0.2,0.4,0.2,0.2,0c-0.2-0.2-0.3-0.4-0.4-0.6c-0.2-0.4-0.4-0.7-0.5-1.1
			c-0.3-0.9-0.3-1.9-0.1-2.8c0.2-1.4-1.3-2.5-2.5-2.5C227.2,843.9,226.4,845.1,226.2,846.4L226.2,846.4z"/>
	</g>
</g>
<g>
	<g>
		<path fill="#F4D369" d="M242.3,909.7c2.5,0.6,4.9,1.3,7.4,1.9c0.5,0.1,1.1,0.3,1.6,0.4c0.5,0.1,1,0.3,1.4,0.7
			c0.7-0.6,0.6-0.9-0.3-0.8c-0.5-0.1-0.9-0.2-1.4-0.4c-1.1-0.3-2.1-0.6-3.2-0.9c-0.7-0.2-2.5-0.3-3-0.6c0.8,0.5,2.8,0.5,3.8,0.7
			c0.6,0.1,1.1,0.2,1.7,0.3c0.6,0.4,1,0.2,1.2-0.6c-3.2-0.2-3.2,4.8,0,5c2.6,0.2,5-1.8,4.9-4.5c-0.1-3.2-2.9-4.3-5.6-4.9
			c-3-0.6-6.7-2-9.4,0c-2.4,1.8-2.5,5.1-0.4,7.1c2.3,2.2,6.6,2.6,9.6,3.4c2.6,0.7,5.7,0.7,6.8-2.3c2.6-7.1-9.7-8.3-13.8-9.4
			C240.5,904.1,239.2,908.9,242.3,909.7L242.3,909.7z"/>
	</g>
</g>
<g>
	<g>
		<path fill="#F4D369" d="M228.5,777.5c-0.6,3.7-2.2,8.7,1.3,11.4c3.1,2.4,6.7,0.2,7.6-3.2c0.4-1.8,0.3-3.7,0.1-5.5
			c-0.2-1.6-0.4-3.7-1.7-4.9c-1.3-1.2-3.3-1.2-4.7-0.2c-1.6,1.1-1.8,2.7-2.5,4.3c-1.3,2.9,3,5.5,4.3,2.5c0.2-0.6,0.5-1.1,0.7-1.7
			c0.1-0.3,0.2-0.7,0.3-1c-0.5-0.1-1.1-0.2-1.6-0.3c-0.1,0.2,0.3,1.9,0.4,2.3c0.1,0.8,0.2,1.7,0.1,2.5c0,0.4-0.2,0.8-0.3,1.2
			c-0.2,0.3-0.1,0.2,0.3-0.2c-0.1-0.4-0.1-0.7-0.1-1.1c0-1.6,0.5-3.3,0.7-4.9C233.8,775.7,229,774.3,228.5,777.5L228.5,777.5z"/>
	</g>
</g>
<g>
	<g>
		<path fill="#F4D369" d="M251.7,787.8c-4.1,1.3-7.4,4.5-8.5,8.7c-0.6,1.9-0.9,4.5,1.2,5.7c1.9,1.1,4.2,0,5.9-1
			c2.7-1.6,8.3-7.5,4-10.3c-1.9-1.3-4.4-0.6-6,0.9c-1.8,1.7-1.9,4.1-3.2,6.1c-1.7,2.7,2.6,5.2,4.3,2.5c0.5-0.8,0.9-1.7,1.2-2.7
			c0.2-0.4,0.3-0.9,0.5-1.3c0.1-0.3,0.7-0.9,0.7-1.2c-0.3-0.6-0.7-1.2-1-1.7c-0.1,0.3-0.3,0.5-0.4,0.8c-0.3,0.4-0.5,0.8-0.8,1.1
			c-0.6,0.7-1.4,1.3-2.3,1.7c-0.2,0.1-0.9,0.3-1,0.4c1,1.7,1.5,2.1,1.5,1.2c0-0.3,0.1-0.5,0.1-0.7c0.2-0.8,0.5-1.5,0.9-2.2
			c1-1.6,2.4-2.7,4.2-3.3C256,791.6,254.7,786.8,251.7,787.8L251.7,787.8z"/>
	</g>
</g>
<g>
	<g>
		<path fill="#F4D369" d="M217.3,818.9c1,0.2,1.9,0.5,2.8,0.9c0.6,0.3,1.9,0.8,2.2,1.4c-0.1-0.6-0.2-1.3-0.3-1.9
			c0.1-0.5,0.3,0-0.3-0.1c-0.2,0-0.4,0-0.6-0.1c-0.7-0.3-1.1-1-1.2-1.7c-0.9-3.1-5.7-1.8-4.8,1.3c1.3,4.4,6.5,7.4,10.4,4
			c4.9-4.2-3.5-8-6.8-8.7C215.5,813.4,214.1,818.2,217.3,818.9L217.3,818.9z"/>
	</g>
</g>
<g>
	<g>
		<path fill="#F4D369" d="M268.3,856.7c1.2,0,2.3,0.7,2.5,2.1c0-0.4,0-0.9,0-1.3c0,0.1-0.1,0.2-0.1,0.3c0.2-0.4,0.4-0.7,0.6-1.1
			c1-0.3,1.2-0.4,0.5-0.4c0-0.1-0.1-0.2-0.3-0.1c-0.3-0.1-0.5-0.2-0.8-0.4c-0.4-0.3-0.9-0.7-1.1-1.2c-0.5-1.2-1.7-2.1-3.1-1.7
			c-1.2,0.3-2.3,1.8-1.7,3.1c0.8,2,2.1,3.7,4.1,4.6c1.8,0.8,4.4,1.4,5.9-0.3c1.7-1.8,0.4-4.7-1-6.2c-1.4-1.5-3.5-2.4-5.5-2.3
			C265.1,851.8,265.1,856.8,268.3,856.7L268.3,856.7z"/>
	</g>
</g>
<g>
	<g>
		<path fill="#BDD376" d="M249.5,930.7c-19.7-14.5-30.4-41.1-35.5-64.2c-3.4-15.7-4.5-31.8-4.2-47.9c0.1-8,0.6-16.1,1.2-24.1
			c0.6-7,0.9-14.3,2.8-21.1c1.9-6.9,5.9-13.2,13.2-15c7.8-1.9,15.7,1.8,21.5,6.8c10.7,9.4,17.9,23.4,22.7,36.6
			c9.9,27.1,12.9,57.5,15.2,86.1c0.7,9.3,1.1,18.7,0.9,28.1c-0.2,8.7,1,21.5-9.7,23.8c-5.2,1.1-11.8,1.1-16.7-1.3
			c-4.1-2-7.5-4.6-11-7.4c-1.9-1.5-4.6,1.2-2.7,2.7c7.3,5.7,13.8,10.1,23.2,10.3c5.6,0.1,12.3-0.5,16.3-5c4.8-5.5,4.1-15.3,4.3-22.1
			c0.7-19.4-1.6-38.8-4-58c-2-15.9-4.3-31.9-8.7-47.3c-4.2-14.8-10.5-29.2-20.1-41.4c-8.2-10.3-21.7-20.4-35.5-14.4
			c-13.2,5.8-14.1,22.5-15.2,34.8c-1.7,19.2-2.4,38.6-0.3,57.8c2,18.5,6.7,36.7,15.1,53.3c6.2,12.2,14.2,24.1,25.2,32.2
			C249.5,935.4,251.4,932.1,249.5,930.7z"/>
	</g>
</g>
</svg>
